<mxfile host="Electron" modified="2024-04-05T07:22:28.758Z" agent="Mozilla/5.0 (Windows NT 10.0; Win64; x64) AppleWebKit/537.36 (KHTML, like Gecko) draw.io/22.1.11 Chrome/114.0.5735.289 Electron/25.9.8 Safari/537.36" etag="vnKILAc0L9f7BFv9dPPt" version="22.1.11" type="device">
  <diagram name="Page-1" id="10a91c8b-09ff-31b1-d368-03940ed4cc9e">
    <mxGraphModel dx="2104" dy="744" grid="1" gridSize="10" guides="1" tooltips="1" connect="1" arrows="1" fold="1" page="1" pageScale="1" pageWidth="1100" pageHeight="850" background="none" math="0" shadow="0">
      <root>
        <mxCell id="0" />
        <mxCell id="1" parent="0" />
        <mxCell id="SibxhflnwdYZrCTUnabU-5" value="Sequence" style="whiteSpace=wrap;html=1;rounded=0;shadow=0;labelBackgroundColor=none;strokeWidth=1;fontFamily=Verdana;fontSize=16;align=center;strokeColor=default;" parent="1" vertex="1">
          <mxGeometry x="229" y="250" width="180" height="40" as="geometry" />
        </mxCell>
        <mxCell id="SibxhflnwdYZrCTUnabU-7" value="SequencePart" style="whiteSpace=wrap;html=1;rounded=0;shadow=0;labelBackgroundColor=none;strokeWidth=1;fontFamily=Verdana;fontSize=16;align=center;strokeColor=default;" parent="1" vertex="1">
          <mxGeometry x="230" y="330" width="180" height="40" as="geometry" />
        </mxCell>
        <mxCell id="SibxhflnwdYZrCTUnabU-10" value="PositionPositionLong" style="whiteSpace=wrap;html=1;rounded=0;shadow=0;labelBackgroundColor=none;strokeWidth=1;fontFamily=Verdana;fontSize=16;align=center;strokeColor=default;" parent="1" vertex="1">
          <mxGeometry x="230" y="405" width="180" height="40" as="geometry" />
        </mxCell>
        <mxCell id="SibxhflnwdYZrCTUnabU-11" value="PositionLong" style="whiteSpace=wrap;html=1;rounded=0;shadow=0;labelBackgroundColor=none;strokeWidth=1;fontFamily=Verdana;fontSize=16;align=center;strokeColor=default;" parent="1" vertex="1">
          <mxGeometry x="229" y="480" width="181" height="40" as="geometry" />
        </mxCell>
        <mxCell id="SibxhflnwdYZrCTUnabU-12" value="PositionLongPart" style="whiteSpace=wrap;html=1;rounded=0;shadow=0;labelBackgroundColor=none;strokeWidth=1;fontFamily=Verdana;fontSize=16;align=center;strokeColor=default;" parent="1" vertex="1">
          <mxGeometry x="-20" y="550" width="180" height="40" as="geometry" />
        </mxCell>
        <mxCell id="SibxhflnwdYZrCTUnabU-13" value="AttValuePairEquals&lt;br style=&quot;font-size: 16px;&quot;&gt;=" style="whiteSpace=wrap;html=1;rounded=0;shadow=0;labelBackgroundColor=none;strokeWidth=1;fontFamily=Verdana;fontSize=16;align=center;strokeColor=default;" parent="1" vertex="1">
          <mxGeometry x="-160" y="620" width="160" height="40" as="geometry" />
        </mxCell>
        <mxCell id="SibxhflnwdYZrCTUnabU-17" value="QuotedString&lt;br style=&quot;font-size: 16px;&quot;&gt;把" style="whiteSpace=wrap;html=1;rounded=0;shadow=0;labelBackgroundColor=none;strokeWidth=1;fontFamily=Verdana;fontSize=16;align=center;strokeColor=default;" parent="1" vertex="1">
          <mxGeometry x="140" y="690" width="130" height="40" as="geometry" />
        </mxCell>
        <mxCell id="SibxhflnwdYZrCTUnabU-18" value="ValuePartString&lt;br style=&quot;font-size: 16px;&quot;&gt;把" style="whiteSpace=wrap;html=1;rounded=0;shadow=0;labelBackgroundColor=none;strokeWidth=1;fontFamily=Verdana;fontSize=16;align=center;strokeColor=default;" parent="1" vertex="1">
          <mxGeometry x="140" y="620" width="130" height="40" as="geometry" />
        </mxCell>
        <mxCell id="SibxhflnwdYZrCTUnabU-19" value="Or&lt;br style=&quot;font-size: 16px;&quot;&gt;|" style="whiteSpace=wrap;html=1;rounded=0;shadow=0;labelBackgroundColor=none;strokeWidth=1;fontFamily=Verdana;fontSize=16;align=center;strokeColor=default;" parent="1" vertex="1">
          <mxGeometry x="229" y="550" width="180" height="40" as="geometry" />
        </mxCell>
        <mxCell id="SibxhflnwdYZrCTUnabU-47" value="" style="endArrow=classic;html=1;rounded=0;exitX=0.5;exitY=1;exitDx=0;exitDy=0;entryX=0.5;entryY=0;entryDx=0;entryDy=0;fontSize=16;strokeColor=default;" parent="1" source="SibxhflnwdYZrCTUnabU-5" target="SibxhflnwdYZrCTUnabU-7" edge="1">
          <mxGeometry width="50" height="50" relative="1" as="geometry">
            <mxPoint x="810" y="190" as="sourcePoint" />
            <mxPoint x="595" y="240" as="targetPoint" />
          </mxGeometry>
        </mxCell>
        <mxCell id="SibxhflnwdYZrCTUnabU-48" value="" style="endArrow=classic;html=1;rounded=0;exitX=0.5;exitY=1;exitDx=0;exitDy=0;entryX=0.5;entryY=0;entryDx=0;entryDy=0;fontSize=16;strokeColor=default;" parent="1" source="SibxhflnwdYZrCTUnabU-7" target="SibxhflnwdYZrCTUnabU-10" edge="1">
          <mxGeometry width="50" height="50" relative="1" as="geometry">
            <mxPoint x="595" y="350" as="sourcePoint" />
            <mxPoint x="445" y="400" as="targetPoint" />
          </mxGeometry>
        </mxCell>
        <mxCell id="SibxhflnwdYZrCTUnabU-56" value="" style="endArrow=classic;html=1;rounded=0;exitX=0.5;exitY=1;exitDx=0;exitDy=0;entryX=0.5;entryY=0;entryDx=0;entryDy=0;fontSize=16;strokeColor=default;" parent="1" source="SibxhflnwdYZrCTUnabU-12" target="SibxhflnwdYZrCTUnabU-15" edge="1">
          <mxGeometry width="50" height="50" relative="1" as="geometry">
            <mxPoint x="285" y="440" as="sourcePoint" />
            <mxPoint x="121" y="490" as="targetPoint" />
          </mxGeometry>
        </mxCell>
        <mxCell id="SibxhflnwdYZrCTUnabU-57" value="" style="endArrow=classic;html=1;rounded=0;exitX=0.5;exitY=1;exitDx=0;exitDy=0;entryX=0.5;entryY=0;entryDx=0;entryDy=0;fontSize=16;strokeColor=default;" parent="1" source="SibxhflnwdYZrCTUnabU-18" target="SibxhflnwdYZrCTUnabU-17" edge="1">
          <mxGeometry width="50" height="50" relative="1" as="geometry">
            <mxPoint x="-35" y="700" as="sourcePoint" />
            <mxPoint x="-40" y="730" as="targetPoint" />
          </mxGeometry>
        </mxCell>
        <mxCell id="SibxhflnwdYZrCTUnabU-58" value="" style="endArrow=classic;html=1;rounded=0;exitX=0.5;exitY=1;exitDx=0;exitDy=0;entryX=0.5;entryY=0;entryDx=0;entryDy=0;fontSize=16;strokeColor=default;" parent="1" source="SibxhflnwdYZrCTUnabU-12" target="SibxhflnwdYZrCTUnabU-18" edge="1">
          <mxGeometry width="50" height="50" relative="1" as="geometry">
            <mxPoint x="-40" y="690" as="sourcePoint" />
            <mxPoint x="-40" y="730" as="targetPoint" />
          </mxGeometry>
        </mxCell>
        <mxCell id="SibxhflnwdYZrCTUnabU-59" value="" style="endArrow=classic;html=1;rounded=0;exitX=0.5;exitY=1;exitDx=0;exitDy=0;entryX=0.5;entryY=0;entryDx=0;entryDy=0;fontSize=16;strokeColor=default;" parent="1" source="SibxhflnwdYZrCTUnabU-12" target="SibxhflnwdYZrCTUnabU-13" edge="1">
          <mxGeometry width="50" height="50" relative="1" as="geometry">
            <mxPoint x="-40" y="690" as="sourcePoint" />
            <mxPoint x="142" y="730" as="targetPoint" />
          </mxGeometry>
        </mxCell>
        <mxCell id="SibxhflnwdYZrCTUnabU-60" value="" style="endArrow=classic;html=1;rounded=0;exitX=0.5;exitY=1;exitDx=0;exitDy=0;entryX=0.5;entryY=0;entryDx=0;entryDy=0;fontSize=16;strokeColor=default;" parent="1" source="SibxhflnwdYZrCTUnabU-10" target="SibxhflnwdYZrCTUnabU-11" edge="1">
          <mxGeometry width="50" height="50" relative="1" as="geometry">
            <mxPoint x="300" y="560" as="sourcePoint" />
            <mxPoint x="350" y="510" as="targetPoint" />
          </mxGeometry>
        </mxCell>
        <mxCell id="SibxhflnwdYZrCTUnabU-61" value="" style="endArrow=classic;html=1;rounded=0;exitX=0.5;exitY=1;exitDx=0;exitDy=0;entryX=0.5;entryY=0;entryDx=0;entryDy=0;fontSize=16;strokeColor=default;" parent="1" source="SibxhflnwdYZrCTUnabU-11" target="SibxhflnwdYZrCTUnabU-12" edge="1">
          <mxGeometry width="50" height="50" relative="1" as="geometry">
            <mxPoint x="241" y="510" as="sourcePoint" />
            <mxPoint x="241" y="550" as="targetPoint" />
          </mxGeometry>
        </mxCell>
        <mxCell id="SibxhflnwdYZrCTUnabU-62" value="" style="endArrow=classic;html=1;rounded=0;exitX=0.5;exitY=1;exitDx=0;exitDy=0;entryX=0.5;entryY=0;entryDx=0;entryDy=0;fontSize=16;strokeColor=default;" parent="1" source="SibxhflnwdYZrCTUnabU-11" target="SibxhflnwdYZrCTUnabU-19" edge="1">
          <mxGeometry width="50" height="50" relative="1" as="geometry">
            <mxPoint x="241" y="590" as="sourcePoint" />
            <mxPoint y="650" as="targetPoint" />
          </mxGeometry>
        </mxCell>
        <mxCell id="SibxhflnwdYZrCTUnabU-63" value="PositionLongPart" style="whiteSpace=wrap;html=1;rounded=0;shadow=0;labelBackgroundColor=none;strokeWidth=1;fontFamily=Verdana;fontSize=16;align=center;strokeColor=default;" parent="1" vertex="1">
          <mxGeometry x="480" y="550" width="180" height="40" as="geometry" />
        </mxCell>
        <mxCell id="SibxhflnwdYZrCTUnabU-64" value="AttValuePairEquals&lt;br style=&quot;font-size: 16px;&quot;&gt;=" style="whiteSpace=wrap;html=1;rounded=0;shadow=0;labelBackgroundColor=none;strokeWidth=1;fontFamily=Verdana;fontSize=16;align=center;strokeColor=default;" parent="1" vertex="1">
          <mxGeometry x="340" y="620" width="160" height="40" as="geometry" />
        </mxCell>
        <mxCell id="SibxhflnwdYZrCTUnabU-65" value="PropName&lt;br style=&quot;font-size: 16px;&quot;&gt;word" style="whiteSpace=wrap;html=1;rounded=0;shadow=0;labelBackgroundColor=none;strokeWidth=1;fontFamily=Verdana;fontSize=16;align=center;strokeColor=default;" parent="1" vertex="1">
          <mxGeometry x="520" y="620" width="100" height="40" as="geometry" />
        </mxCell>
        <mxCell id="SibxhflnwdYZrCTUnabU-66" value="QuotedString&lt;br style=&quot;font-size: 16px;&quot;&gt;被" style="whiteSpace=wrap;html=1;rounded=0;shadow=0;labelBackgroundColor=none;strokeWidth=1;fontFamily=Verdana;fontSize=16;align=center;strokeColor=default;" parent="1" vertex="1">
          <mxGeometry x="640" y="690" width="130" height="40" as="geometry" />
        </mxCell>
        <mxCell id="SibxhflnwdYZrCTUnabU-67" value="ValuePartString&lt;br style=&quot;font-size: 16px;&quot;&gt;被" style="whiteSpace=wrap;html=1;rounded=0;shadow=0;labelBackgroundColor=none;strokeWidth=1;fontFamily=Verdana;fontSize=16;align=center;strokeColor=default;" parent="1" vertex="1">
          <mxGeometry x="640" y="620" width="130" height="40" as="geometry" />
        </mxCell>
        <mxCell id="SibxhflnwdYZrCTUnabU-68" value="" style="endArrow=classic;html=1;rounded=0;exitX=0.5;exitY=1;exitDx=0;exitDy=0;entryX=0.5;entryY=0;entryDx=0;entryDy=0;fontSize=16;strokeColor=default;" parent="1" source="SibxhflnwdYZrCTUnabU-63" target="SibxhflnwdYZrCTUnabU-65" edge="1">
          <mxGeometry width="50" height="50" relative="1" as="geometry">
            <mxPoint x="490.5" y="629.9999999999998" as="sourcePoint" />
            <mxPoint x="691.5" y="530" as="targetPoint" />
          </mxGeometry>
        </mxCell>
        <mxCell id="SibxhflnwdYZrCTUnabU-69" value="" style="endArrow=classic;html=1;rounded=0;exitX=0.5;exitY=1;exitDx=0;exitDy=0;entryX=0.5;entryY=0;entryDx=0;entryDy=0;fontSize=16;strokeColor=default;" parent="1" source="SibxhflnwdYZrCTUnabU-67" target="SibxhflnwdYZrCTUnabU-66" edge="1">
          <mxGeometry width="50" height="50" relative="1" as="geometry">
            <mxPoint x="565" y="700" as="sourcePoint" />
            <mxPoint x="560" y="730" as="targetPoint" />
          </mxGeometry>
        </mxCell>
        <mxCell id="SibxhflnwdYZrCTUnabU-70" value="" style="endArrow=classic;html=1;rounded=0;exitX=0.5;exitY=1;exitDx=0;exitDy=0;entryX=0.5;entryY=0;entryDx=0;entryDy=0;fontSize=16;strokeColor=default;" parent="1" source="SibxhflnwdYZrCTUnabU-63" target="SibxhflnwdYZrCTUnabU-67" edge="1">
          <mxGeometry width="50" height="50" relative="1" as="geometry">
            <mxPoint x="560" y="690" as="sourcePoint" />
            <mxPoint x="560" y="730" as="targetPoint" />
          </mxGeometry>
        </mxCell>
        <mxCell id="SibxhflnwdYZrCTUnabU-71" value="" style="endArrow=classic;html=1;rounded=0;exitX=0.5;exitY=1;exitDx=0;exitDy=0;entryX=0.5;entryY=0;entryDx=0;entryDy=0;fontSize=16;strokeColor=default;" parent="1" source="SibxhflnwdYZrCTUnabU-63" target="SibxhflnwdYZrCTUnabU-64" edge="1">
          <mxGeometry width="50" height="50" relative="1" as="geometry">
            <mxPoint x="560" y="690" as="sourcePoint" />
            <mxPoint x="742" y="730" as="targetPoint" />
          </mxGeometry>
        </mxCell>
        <mxCell id="SibxhflnwdYZrCTUnabU-72" value="" style="endArrow=classic;html=1;rounded=0;exitX=0.5;exitY=1;exitDx=0;exitDy=0;entryX=0.5;entryY=0;entryDx=0;entryDy=0;fontSize=16;strokeColor=default;" parent="1" source="SibxhflnwdYZrCTUnabU-11" target="SibxhflnwdYZrCTUnabU-63" edge="1">
          <mxGeometry width="50" height="50" relative="1" as="geometry">
            <mxPoint x="241" y="590" as="sourcePoint" />
            <mxPoint x="-40" y="650" as="targetPoint" />
          </mxGeometry>
        </mxCell>
        <mxCell id="tqCQRJ29Dr9J153NYBZo-12" value="" style="endArrow=classic;html=1;rounded=0;exitX=0.5;exitY=1;exitDx=0;exitDy=0;entryX=0.5;entryY=0;entryDx=0;entryDy=0;fontSize=16;strokeColor=default;" parent="1" source="SibxhflnwdYZrCTUnabU-12" target="SibxhflnwdYZrCTUnabU-15" edge="1">
          <mxGeometry width="50" height="50" relative="1" as="geometry">
            <mxPoint x="120" y="590" as="sourcePoint" />
            <mxPoint x="-240" y="720" as="targetPoint" />
          </mxGeometry>
        </mxCell>
        <mxCell id="SibxhflnwdYZrCTUnabU-15" value="PropName&lt;br style=&quot;font-size: 16px;&quot;&gt;word" style="whiteSpace=wrap;html=1;rounded=0;shadow=0;labelBackgroundColor=none;strokeWidth=1;fontFamily=Verdana;fontSize=16;align=center;strokeColor=default;" parent="1" vertex="1">
          <mxGeometry x="20" y="620" width="100" height="40" as="geometry" />
        </mxCell>
      </root>
    </mxGraphModel>
  </diagram>
</mxfile>
